<?xml version="1.0" standalone="no"?>
<svg viewBox="0 0 200 200" xmlns="http://www.w3.org/2000/svg">
  <path fill="#FF0066" d="M40.8,-70.4C50.9,-64.9,55.6,-49.9,59.1,-36.6C62.5,-23.3,64.6,-11.6,66.6,1.2C68.6,14,70.6,27.9,64.9,37.4C59.3,46.9,46.1,51.9,34,58.2C21.9,64.5,10.9,72.1,-1.8,75.2C-14.5,78.2,-29,76.7,-39.2,69.4C-49.5,62,-55.6,48.8,-62.6,36.3C-69.5,23.8,-77.3,11.9,-81.2,-2.3C-85.1,-16.4,-85.2,-32.8,-77.9,-44.8C-70.7,-56.8,-56.1,-64.3,-41.9,-67.5C-27.7,-70.7,-13.8,-69.5,0.8,-70.8C15.4,-72.1,30.7,-76,40.8,-70.4Z" transform="translate(100 100)" />
</svg>
